HIERARCHY
ROOT Hips
{
  OFFSET 5.72205e-005 65.662 3.42586
  CHANNELS 6 Xposition Yposition Zposition Zrotation Xrotation Yrotation
  JOINT Chest
  {
    OFFSET 0 8.7983 -4.7612
    CHANNELS 6 Xposition Yposition Zposition Zrotation Xrotation Yrotation
    JOINT Chest2
    {
      OFFSET 0 8.0291 0.4195
      CHANNELS 6 Xposition Yposition Zposition Zrotation Xrotation Yrotation
      JOINT Chest3
      {
        OFFSET 0 9.9351 -2.2114
        CHANNELS 6 Xposition Yposition Zposition Zrotation Xrotation Yrotation
        JOINT Neck
        {
          OFFSET 0 22.3885 -0.4656
          CHANNELS 6 Xposition Yposition Zposition Zrotation Xrotation Yrotation
          JOINT Head
          {
            OFFSET -0.0001 12.643 3.4389
            CHANNELS 6 Xposition Yposition Zposition Zrotation Xrotation Yrotation
            End Site
            {
              OFFSET 0.0001 17.6655 0.5274
            }
          }
        }
        JOINT LeftCollar
        {
          OFFSET 2.2603 21.606 7.4023
          CHANNELS 6 Xposition Yposition Zposition Zrotation Xrotation Yrotation
          JOINT LeftShoulder
          {
            OFFSET 13.5163 -1.1332 -5.0146
            CHANNELS 6 Xposition Yposition Zposition Zrotation Xrotation Yrotation
            JOINT LeftElbow
            {
              OFFSET -0.0995 -28.05 -0.2431
              CHANNELS 6 Xposition Yposition Zposition Zrotation Xrotation Yrotation
              JOINT LeftWrist
              {
                OFFSET 0.0679 -23.3996 -0.1402
                CHANNELS 6 Xposition Yposition Zposition Zrotation Xrotation Yrotation
                JOINT LeftFinger1
                {
                  OFFSET 0.7932 -9.069 2.5189
                  CHANNELS 6 Xposition Yposition Zposition Zrotation Xrotation Yrotation
                  JOINT LeftFinger11
                  {
                    OFFSET -0.8272 -3.3923 0.5977
                    CHANNELS 6 Xposition Yposition Zposition Zrotation Xrotation Yrotation
                    JOINT LeftFinger12
                    {
                      OFFSET -0.5649 -2.3158 0.4082
                      CHANNELS 6 Xposition Yposition Zposition Zrotation Xrotation Yrotation
                      End Site
                      {
                        OFFSET -0.4919 -1.6479 0.2673
                      }
                    }
                  }
                }
                JOINT LeftFinger2
                {
                  OFFSET 0.9159 -9.2044 0.2193
                  CHANNELS 6 Xposition Yposition Zposition Zrotation Xrotation Yrotation
                  JOINT LeftFinger21
                  {
                    OFFSET 0.0117 -4.1944 -0.0248
                    CHANNELS 6 Xposition Yposition Zposition Zrotation Xrotation Yrotation
                    JOINT LeftFinger22
                    {
                      OFFSET 0.0071 -2.3249 -0.0142
                      CHANNELS 6 Xposition Yposition Zposition Zrotation Xrotation Yrotation
                      End Site
                      {
                        OFFSET -0.1475 -2.0882 0.0028
                      }
                    }
                  }
                }
                JOINT LeftFinger3
                {
                  OFFSET 0.6113 -8.7231 -2.0637
                  CHANNELS 6 Xposition Yposition Zposition Zrotation Xrotation Yrotation
                  JOINT LeftFinger31
                  {
                    OFFSET -0.1927 -3.8059 -0.2383
                    CHANNELS 6 Xposition Yposition Zposition Zrotation Xrotation Yrotation
                    JOINT LeftFinger32
                    {
                      OFFSET -0.1091 -2.1688 -0.1362
                      CHANNELS 6 Xposition Yposition Zposition Zrotation Xrotation Yrotation
                      End Site
                      {
                        OFFSET -0.2358 -1.9176 -0.0906
                      }
                    }
                  }
                }
                JOINT LeftFinger4
                {
                  OFFSET -0.6151 -8.0947 -3.5641
                  CHANNELS 6 Xposition Yposition Zposition Zrotation Xrotation Yrotation
                  JOINT LeftFinger41
                  {
                    OFFSET -0.4882 -2.341 -0.6462
                    CHANNELS 6 Xposition Yposition Zposition Zrotation Xrotation Yrotation
                    JOINT LeftFinger42
                    {
                      OFFSET -0.3575 -1.7167 -0.4742
                      CHANNELS 6 Xposition Yposition Zposition Zrotation Xrotation Yrotation
                      End Site
                      {
                        OFFSET -0.4187 -1.5237 -0.3496
                      }
                    }
                  }
                }
                JOINT LeftFinger0
                {
                  OFFSET -1.42 -1.8761 1.4223
                  CHANNELS 6 Xposition Yposition Zposition Zrotation Xrotation Yrotation
                  JOINT LeftFinger01
                  {
                    OFFSET -1.1471 -3.4929 2.6334
                    CHANNELS 6 Xposition Yposition Zposition Zrotation Xrotation Yrotation
                    JOINT LeftFinger02
                    {
                      OFFSET -0.823 -2.3 1.6571
                      CHANNELS 6 Xposition Yposition Zposition Zrotation Xrotation Yrotation
                      End Site
                      {
                        OFFSET -0.5822 -1.6914 1.1582
                      }
                    }
                  }
                }
              }
            }
          }
        }
        JOINT RightCollar
        {
          OFFSET -2.2603 21.606 7.4023
          CHANNELS 6 Xposition Yposition Zposition Zrotation Xrotation Yrotation
          JOINT RightShoulder
          {
            OFFSET -13.5187 -1.1334 -5.0155
            CHANNELS 6 Xposition Yposition Zposition Zrotation Xrotation Yrotation
            JOINT RightElbow
            {
              OFFSET 0.0994 -28.0499 -0.2431
              CHANNELS 6 Xposition Yposition Zposition Zrotation Xrotation Yrotation
              JOINT RightWrist
              {
                OFFSET -0.0679 -23.3996 -0.1402
                CHANNELS 6 Xposition Yposition Zposition Zrotation Xrotation Yrotation
                JOINT RightFinger1
                {
                  OFFSET -0.7932 -9.0691 2.5189
                  CHANNELS 6 Xposition Yposition Zposition Zrotation Xrotation Yrotation
                  JOINT RightFinger11
                  {
                    OFFSET 0.8272 -3.3923 0.5977
                    CHANNELS 6 Xposition Yposition Zposition Zrotation Xrotation Yrotation
                    JOINT RightFinger12
                    {
                      OFFSET 0.565 -2.3158 0.4082
                      CHANNELS 6 Xposition Yposition Zposition Zrotation Xrotation Yrotation
                      End Site
                      {
                        OFFSET 0.4919 -1.6479 0.2673
                      }
                    }
                  }
                }
                JOINT RightFinger2
                {
                  OFFSET -0.916 -9.2044 0.2193
                  CHANNELS 6 Xposition Yposition Zposition Zrotation Xrotation Yrotation
                  JOINT RightFinger21
                  {
                    OFFSET -0.0117 -4.1944 -0.0248
                    CHANNELS 6 Xposition Yposition Zposition Zrotation Xrotation Yrotation
                    JOINT RightFinger22
                    {
                      OFFSET -0.0071 -2.3249 -0.0142
                      CHANNELS 6 Xposition Yposition Zposition Zrotation Xrotation Yrotation
                      End Site
                      {
                        OFFSET 0.1475 -2.0882 0.0028
                      }
                    }
                  }
                }
                JOINT RightFinger3
                {
                  OFFSET -0.6113 -8.7231 -2.0637
                  CHANNELS 6 Xposition Yposition Zposition Zrotation Xrotation Yrotation
                  JOINT RightFinger31
                  {
                    OFFSET 0.1927 -3.8059 -0.2383
                    CHANNELS 6 Xposition Yposition Zposition Zrotation Xrotation Yrotation
                    JOINT RightFinger32
                    {
                      OFFSET 0.1091 -2.1688 -0.1362
                      CHANNELS 6 Xposition Yposition Zposition Zrotation Xrotation Yrotation
                      End Site
                      {
                        OFFSET 0.2358 -1.9176 -0.0906
                      }
                    }
                  }
                }
                JOINT RightFinger4
                {
                  OFFSET 0.6151 -8.0947 -3.564
                  CHANNELS 6 Xposition Yposition Zposition Zrotation Xrotation Yrotation
                  JOINT RightFinger41
                  {
                    OFFSET 0.4882 -2.341 -0.6462
                    CHANNELS 6 Xposition Yposition Zposition Zrotation Xrotation Yrotation
                    JOINT RightFinger42
                    {
                      OFFSET 0.3574 -1.7166 -0.4742
                      CHANNELS 6 Xposition Yposition Zposition Zrotation Xrotation Yrotation
                      End Site
                      {
                        OFFSET 0.4187 -1.5237 -0.3496
                      }
                    }
                  }
                }
                JOINT RightFinger0
                {
                  OFFSET 1.4199 -1.8761 1.4221
                  CHANNELS 6 Xposition Yposition Zposition Zrotation Xrotation Yrotation
                  JOINT RightFinger01
                  {
                    OFFSET 1.1472 -3.4929 2.6336
                    CHANNELS 6 Xposition Yposition Zposition Zrotation Xrotation Yrotation
                    JOINT RightFinger02
                    {
                      OFFSET 0.8229 -2.3 1.6571
                      CHANNELS 6 Xposition Yposition Zposition Zrotation Xrotation Yrotation
                      End Site
                      {
                        OFFSET 0.5822 -1.6914 1.1582
                      }
                    }
                  }
                }
              }
            }
          }
        }
      }
    }
  }
  JOINT RightHip
  {
    OFFSET -9.412 3.9771 -0.7758
    CHANNELS 6 Xposition Yposition Zposition Zrotation Xrotation Yrotation
    JOINT RightKnee
    {
      OFFSET -0.7531 -40.938 0
      CHANNELS 6 Xposition Yposition Zposition Zrotation Xrotation Yrotation
      JOINT RightAnkle
      {
        OFFSET 0 -40.1986 0
        CHANNELS 6 Xposition Yposition Zposition Zrotation Xrotation Yrotation
        JOINT RightToe
        {
          OFFSET 0 -4.4182 9.239
          CHANNELS 6 Xposition Yposition Zposition Zrotation Xrotation Yrotation
          End Site
          {
            OFFSET 0 0 6.1981
          }
        }
      }
    }
  }
  JOINT LeftHip
  {
    OFFSET 9.4119 3.9773 -0.7758
    CHANNELS 6 Xposition Yposition Zposition Zrotation Xrotation Yrotation
    JOINT LeftKnee
    {
      OFFSET 0.7532 -40.9383 0
      CHANNELS 6 Xposition Yposition Zposition Zrotation Xrotation Yrotation
      JOINT LeftAnkle
      {
        OFFSET 0 -40.1986 0
        CHANNELS 6 Xposition Yposition Zposition Zrotation Xrotation Yrotation
        JOINT LeftToe
        {
          OFFSET 0 -4.4182 9.239
          CHANNELS 6 Xposition Yposition Zposition Zrotation Xrotation Yrotation
          End Site
          {
            OFFSET 0 0 6.1981
          }
        }
      }
    }
  }
}
MOTION
Frames:	4
Frame Time:	0.0333333
5.72205e-005 65.662 3.42586 0 0 -0 0 8.7983 -4.7612 0 0 -0 0 8.0291 0.4195 0 0 -0 0 9.9351 -2.2114 0 0 -0 0 22.3885 -0.4656 0 0 -0 -0.0001 12.643 3.4389 0 0 -0 2.2603 21.606 7.4023 0 0 -12.5014 13.5163 -1.1332 -5.0146 88.1196 14.2451 10.6914 -0.0995 -28.05 -0.2431 -0.00160068 -0.00239207 0.000740045 0.0679 -23.3996 -0.1402 -8.4365e-005 7.00714e-005 -9.52055e-007 0.7932 -9.069 2.5189 9.93923e-017 -1.98785e-016 -1.59028e-015 -0.8272 -3.3923 0.5977 9.93923e-017 -5.96354e-016 -1.59028e-015 -0.5649 -2.3158 0.4082 -9.93923e-017 -5.96354e-016 -1.59028e-015 0.9159 -9.2044 0.2193 9.93923e-017 -1.98785e-016 -1.59028e-015 0.0117 -4.1944 -0.0248 -0.0128176 0.00232552 8.52707e-005 0.0071 -2.3249 -0.0142 9.93923e-017 5.96354e-016 -0 0.6113 -8.7231 -2.0637 9.93923e-017 -1.98785e-016 -1.59028e-015 -0.1927 -3.8059 -0.2383 -0.0160551 0.00299681 0.000857156 -0.1091 -2.1688 -0.1362 -2.48481e-016 0 3.18055e-015 -0.6151 -8.0947 -3.5641 9.93923e-017 -1.98785e-016 -1.59028e-015 -0.4882 -2.341 -0.6462 -0.0125865 0.0031206 0.00282719 -0.3575 -1.7167 -0.4742 0 1.98785e-016 -0 -1.42 -1.8761 1.4223 9.93923e-017 -1.98785e-016 -1.59028e-015 -1.1471 -3.4929 2.6334 9.93923e-017 -5.96354e-016 -1.59028e-015 -0.823 -2.3 1.6571 -9.93923e-017 -5.96354e-016 -1.59028e-015 -2.2603 21.606 7.4023 -0.865644 0.16582 7.03859 -13.5187 -1.1334 -5.0155 -88.0329 10.2057 -10.5567 0.0994 -28.0499 -0.2431 0.0015593 -0.00248883 -0.000788628 -0.0679 -23.3996 -0.1402 7.87605e-005 4.10553e-005 1.24965e-005 -0.7932 -9.0691 2.5189 -3.97569e-016 -7.95139e-016 3.18055e-015 0.8272 -3.3923 0.5977 -1.98785e-016 -3.97569e-016 3.18055e-015 0.565 -2.3158 0.4082 -1.98785e-016 0 3.18055e-015 -0.916 -9.2044 0.2193 -3.97569e-016 -7.95139e-016 3.18055e-015 -0.0117 -4.1944 -0.0248 0.0129473 0.00231697 -8.70038e-005 -0.0071 -2.3249 -0.0142 9.93923e-017 -7.95139e-016 1.59028e-015 -0.6113 -8.7231 -2.0637 -3.97569e-016 -7.95139e-016 3.18055e-015 0.1927 -3.8059 -0.2383 0.0163314 0.00303369 -0.000872333 0.1091 -2.1688 -0.1362 3.97569e-016 7.95139e-016 -3.18055e-015 0.6151 -8.0947 -3.564 -3.97569e-016 -7.95139e-016 3.18055e-015 0.4882 -2.341 -0.6462 0.0145763 0.00367772 -0.00326275 0.3574 -1.7166 -0.4742 9.93923e-017 -3.97569e-016 -0 1.4199 -1.8761 1.4221 -3.97569e-016 -7.95139e-016 3.18055e-015 1.1472 -3.4929 2.6336 -1.98785e-016 -3.97569e-016 3.18055e-015 0.8229 -2.3 1.6571 -1.98785e-016 0 3.18055e-015 -9.412 3.9771 -0.7758 3.42482 1.32465 -0.0626183 -0.7531 -40.938 0 0.000117508 0.717283 0.000978199 0 -40.1986 0 -3.4257 -2.04197 -0.0604716 8.88178e-016 -4.4182 9.239 6.47761e-025 0 -0 9.4119 3.9773 -0.7758 -3.42483 1.34017 0.0627307 0.7532 -40.9383 -2.22045e-016 -0.000193936 0.682302 -0.0013703 -8.88179e-016 -40.1986 0 3.42574 -2.02253 0.0595886 -8.88178e-016 -4.4182 9.239 -8.45714e-024 0 -7.40531e-025 
0.824462 16.6687 23.5433 178.616 -73.0001 -1.01316 1.11022e-016 8.7983 -4.7612 -0.0687102 -4.94938 -0.290606 -1.11022e-016 8.0291 0.4195 -0.163649 -9.89831 -0.590522 1.11022e-016 9.9351 -2.2114 -0.16365 -9.89833 -0.590524 0 22.3885 -0.4656 0.0924702 0.215138 0.106483 -0.0001 12.643 3.4389 -3.65457e-007 0.159126 -3.28208e-007 2.2603 21.606 7.4023 15.3751 -0.695576 -21.2685 13.5163 -1.1332 -5.0146 80.7285 -18.9456 30.5809 -0.0995 -28.05 -0.2431 -21.9744 -50.3719 -21.4692 0.0679 -23.3996 -0.1402 59.6408 -8.02185 6.62027 0.7932 -9.06901 2.5189 3.27362e-006 -6.36919e-006 -3.41651e-006 -0.8272 -3.3923 0.5977 -3.18055e-015 3.97569e-016 -2.5345e-015 -0.5649 -2.3158 0.4082 3.3794e-032 7.95139e-016 -2.43511e-015 0.9159 -9.20441 0.2193 3.27362e-006 -6.36919e-006 -3.41651e-006 0.0117 -4.1944 -0.0248 -0.0128198 0.00232374 9.08063e-005 0.0071 -2.3249 -0.0142 -5.21612e-006 -4.926e-006 -8.55287e-006 0.6113 -8.72311 -2.0637 3.27362e-006 -6.36919e-006 -3.41651e-006 -0.1927 -3.8059 -0.2383 -0.0160578 0.00300355 0.000862545 -0.1091 -2.1688 -0.1362 -8.60022e-031 -1.15295e-014 -4.27387e-015 -0.6151 -8.09471 -3.5641 3.27362e-006 -6.36919e-006 -3.41651e-006 -0.4882 -2.341 -0.6462 -0.0125321 0.00310886 0.00281049 -0.3575 -1.7167 -0.4742 3.18055e-015 -3.97569e-016 -2.18663e-015 -1.42 -1.8761 1.4223 3.27362e-006 -6.36919e-006 -3.41651e-006 -1.1471 -3.4929 2.6334 -3.18055e-015 3.97569e-016 -2.5345e-015 -0.823 -2.3 1.6571 3.3794e-032 7.95139e-016 -2.43511e-015 -2.2603 21.606 7.4023 17.8531 0.0317062 5.39492 -13.5187 -1.1334 -5.0155 -71.7002 -35.2282 1.11607 0.0994 -28.0499 -0.2431 -13.7486 -33.9512 -14.7184 -0.0679 -23.3996 -0.1402 -59.6367 -7.19069 -7.78657 -0.7932 -9.06911 2.5189 -1.59028e-015 -3.18055e-015 1.59028e-015 0.8272 -3.3923 0.5977 -3.18055e-015 -1.27222e-014 2.38542e-015 0.565 -2.3158 0.4082 -4.77083e-015 -3.18055e-015 -2.38542e-015 -0.916 -9.20441 0.2193 -1.59028e-015 -3.18055e-015 1.59028e-015 -0.0117 -4.1944 -0.0248 0.0129743 0.00231821 -9.1949e-005 -0.0071 -2.3249 -0.0142 4.41391e-031 6.36111e-015 -3.97569e-015 -0.6113 -8.7231 -2.0637 -1.59028e-015 -3.18055e-015 1.59028e-015 0.1927 -3.8059 -0.2383 0.0163475 0.0030383 -0.000880693 0.1091 -2.1688 -0.1362 -4.77083e-015 -3.18055e-015 -7.95139e-016 0.6151 -8.0947 -3.564 -1.59028e-015 -3.18055e-015 1.59028e-015 0.4882 -2.341 -0.6462 0.0145735 0.00367645 -0.00327125 0.3574 -1.7166 -0.4742 -3.18055e-015 -9.54166e-015 3.97569e-015 1.4199 -1.8761 1.4221 -1.59028e-015 -3.18055e-015 1.59028e-015 1.1472 -3.4929 2.6336 -3.18055e-015 -1.27222e-014 2.38542e-015 0.8229 -2.3 1.6571 -4.77083e-015 -3.18055e-015 -2.38542e-015 -9.412 3.9771 -0.7758 -27.4152 -53.7275 -43.9285 -0.7531 -40.938 -7.10543e-015 6.88382 52.8434 -4.46045 -3.55271e-015 -40.1986 0 -10.5359 44.3256 13.4961 0 -4.4182 9.239 4.91454e-007 2.59969e-008 6.90722e-007 9.4119 3.9773 -0.7758 26.6322 -53.4425 42.9407 0.7532 -40.9383 3.55271e-015 -7.15323 51.8445 4.90063 0 -40.1986 -3.55271e-015 10.1695 43.6734 -13.2109 0 -4.4182 9.239 2.28367e-006 -4.08865e-006 3.41657e-007 
0.821919 16.2092 23.3218 178.553 -74.866 -1.0969 0 8.7983 -4.7612 -0.0718495 -4.78601 -0.289555 0 8.0291 0.4195 -0.168959 -9.5716 -0.588255 1.11022e-016 9.9351 -2.2114 -0.168959 -9.57161 -0.588255 -1.11022e-016 22.3885 -0.4656 0.132962 0.35936 0.0628859 -0.0001 12.643 3.4389 -6.8289e-008 0.0928751 -9.77081e-008 2.2603 21.606 7.4023 14.7321 0.0965672 -22.3127 13.5163 -1.1332 -5.0146 80.8291 -18.6613 30.635 -0.0995 -28.05 -0.2431 -21.0842 -49.4331 -20.7585 0.0679 -23.3996 -0.1402 59.5069 -8.75435 6.79859 0.7932 -9.069 2.5189 3.18055e-015 3.97569e-016 -1.78906e-015 -0.8272 -3.3923 0.5977 4.77083e-015 2.38542e-015 -1.49089e-016 -0.5649 -2.3158 0.4082 3.18055e-015 0 9.93923e-016 0.9159 -9.2044 0.2193 3.18055e-015 3.97569e-016 -1.78906e-015 0.0117 -4.1944 -0.0248 -0.0128065 0.00232142 8.2181e-005 0.0071 -2.3249 -0.0142 1.59028e-015 -1.78906e-015 -9.93923e-017 0.6113 -8.7231 -2.0637 3.18055e-015 3.97569e-016 -1.78906e-015 -0.1927 -3.8059 -0.2383 -0.0160655 0.00300658 0.00086605 -0.1091 -2.1688 -0.1362 1.15865e-031 -2.38542e-015 2.78299e-015 -0.6151 -8.0947 -3.5641 3.18055e-015 3.97569e-016 -1.78906e-015 -0.4882 -2.341 -0.6462 -0.0125421 0.00311197 0.0028168 -0.3575 -1.7167 -0.4742 1.59028e-015 -3.97569e-016 -4.07509e-015 -1.42 -1.8761 1.4223 3.18055e-015 3.97569e-016 -1.78906e-015 -1.1471 -3.4929 2.6334 4.77083e-015 2.38542e-015 -1.49089e-016 -0.823 -2.3 1.6571 3.18055e-015 0 9.93923e-016 -2.2603 21.606 7.4023 18.3465 0.455312 5.92188 -13.5187 -1.1334 -5.0155 -71.9746 -34.7273 0.91732 0.0994 -28.0499 -0.2431 -13.5897 -33.3476 -14.6336 -0.0679 -23.3996 -0.1402 -59.3639 -7.67846 -7.64172 -0.7932 -9.0691 2.5189 1.59028e-015 0 -1.59028e-015 0.8272 -3.3923 0.5977 1.59028e-015 0 -7.95139e-016 0.565 -2.3158 0.4082 4.77083e-015 0 7.95139e-016 -0.916 -9.2044 0.2193 1.59028e-015 0 -1.59028e-015 -0.0117 -4.1944 -0.0248 0.0129673 0.00231757 -8.55184e-005 -0.0071 -2.3249 -0.0142 0 0 -7.95139e-016 -0.6113 -8.7231 -2.0637 1.59028e-015 0 -1.59028e-015 0.1927 -3.8059 -0.2383 0.0163139 0.00302518 -0.000869427 0.1091 -2.1688 -0.1362 -1.59028e-015 3.18055e-015 -1.59028e-015 0.6151 -8.0947 -3.564 1.59028e-015 0 -1.59028e-015 0.4882 -2.341 -0.6462 0.0145739 0.00368146 -0.00326001 0.3574 -1.7166 -0.4742 1.31838e-006 3.92626e-006 1.03248e-006 1.4199 -1.8761 1.4221 1.59028e-015 0 -1.59028e-015 1.1472 -3.4929 2.6336 1.59028e-015 0 -7.95139e-016 0.8229 -2.3 1.6571 4.77083e-015 0 7.95139e-016 -9.412 3.9771 -0.7758 -25.2487 -51.8448 -41.0831 -0.7531 -40.938 -3.55271e-015 6.98054 52.2137 -4.47111 0 -40.1986 0 -9.58611 44.4453 12.5656 0 -4.4182 9.239 -7.95139e-016 -3.18055e-015 5.56597e-015 9.4119 3.9773 -0.7758 24.4495 -51.4972 40.141 0.7532 -40.9383 -7.10543e-015 -7.17363 51.1188 4.85602 0 -40.1986 -3.55271e-015 9.26754 43.8383 -12.3047 0 -4.4182 9.239 -2.62396e-014 -1.27222e-014 1.43125e-014 
0.819472 15.7506 23.0918 178.468 -76.74 -1.20172 0 8.7983 -4.7612 -0.0749804 -4.62153 -0.288433 1.11022e-016 8.0291 0.4195 -0.174244 -9.24256 -0.58583 -1.11022e-016 9.9351 -2.2114 -0.174244 -9.24259 -0.585832 0 22.3885 -0.4656 0.173575 0.5036 0.0191743 -0.0001 12.643 3.4389 1.22595e-007 0.0265997 8.79318e-008 2.2603 21.606 7.4023 14.1019 0.902343 -23.3507 13.5163 -1.1332 -5.0146 80.9248 -18.3772 30.687 -0.0995 -28.05 -0.2431 -20.224 -48.4877 -20.0832 0.0679 -23.3996 -0.1402 59.3748 -9.48782 6.97566 0.7932 -9.06901 2.5189 3.18055e-015 1.59028e-015 1.88845e-015 -0.8272 -3.3923 0.5977 3.18055e-015 1.59028e-015 3.18055e-015 -0.5649 -2.3158 0.4082 4.77083e-015 1.59028e-015 1.3418e-015 0.9159 -9.20441 0.2193 3.18055e-015 1.59028e-015 1.88845e-015 0.0117 -4.1944 -0.0248 -0.0128178 0.00233469 8.87813e-005 0.0071 -2.3249 -0.0142 3.18055e-015 1.98785e-016 4.47266e-015 0.6113 -8.7231 -2.0637 3.18055e-015 1.59028e-015 1.88845e-015 -0.1927 -3.8059 -0.2383 -0.0160358 0.00299647 0.000858384 -0.1091 -2.1688 -0.1362 -3.98286e-032 5.96354e-016 3.8266e-015 -0.6151 -8.0947 -3.5641 3.18055e-015 1.59028e-015 1.88845e-015 -0.4882 -2.341 -0.6462 -0.0125833 0.00312562 0.00282837 -0.3575 -1.7167 -0.4742 2.24144e-033 -1.98785e-016 6.4605e-016 -1.42 -1.8761 1.4223 3.18055e-015 1.59028e-015 1.88845e-015 -1.1471 -3.4929 2.6334 3.18055e-015 1.59028e-015 3.18055e-015 -0.823 -2.3 1.6571 4.77083e-015 1.59028e-015 1.3418e-015 -2.2603 21.606 7.4023 18.8366 0.883767 6.44567 -13.5187 -1.1334 -5.0155 -72.2391 -34.2203 0.726126 0.0994 -28.0499 -0.2431 -13.4389 -32.7485 -14.5528 -0.0679 -23.3996 -0.1402 -59.0893 -8.1657 -7.49426 -0.7932 -9.0691 2.5189 1.59028e-015 0 1.59028e-015 0.8272 -3.3923 0.5977 1.59028e-015 0 1.59028e-015 0.565 -2.3158 0.4082 -1.59028e-015 0 2.38542e-015 -0.916 -9.2044 0.2193 1.59028e-015 0 1.59028e-015 -0.0117 -4.1944 -0.0248 0.0129746 0.00231824 -8.48873e-005 -0.0071 -2.3249 -0.0142 -3.18055e-015 3.18055e-015 -0 -0.6113 -8.7231 -2.0637 1.59028e-015 0 1.59028e-015 0.1927 -3.8059 -0.2383 0.0163405 0.00302762 -0.000876523 0.1091 -2.1688 -0.1362 -5.29669e-031 9.54166e-015 3.18055e-015 0.6151 -8.0947 -3.564 1.59028e-015 0 1.59028e-015 0.4882 -2.341 -0.6462 0.01454 0.0036665 -0.00325564 0.3574 -1.7166 -0.4742 0 0 -7.95139e-016 1.4199 -1.8761 1.4221 1.59028e-015 0 1.59028e-015 1.1472 -3.4929 2.6336 1.59028e-015 0 1.59028e-015 0.8229 -2.3 1.6571 -1.59028e-015 0 2.38542e-015 -9.412 3.9771 -0.7758 -23.2981 -49.886 -38.4403 -0.7531 -40.938 0 7.07563 51.5821 -4.48058 0 -40.1986 3.55271e-015 -8.63197 44.5542 11.6304 0 -4.4182 9.239 1.55056e-006 2.73862e-006 -6.53256e-007 9.4119 3.9773 -0.7758 22.4903 -49.4737 37.5511 0.7532 -40.9383 -3.55271e-015 -7.1983 50.3935 4.81269 0 -40.1986 0 8.35962 43.9922 -11.3921 -3.55271e-015 -4.4182 9.239 3.97569e-015 4.91191e-006 2.38542e-015 
